# xmcd
#
# Track frame offsets:
#	150
#	13062
#	31135
#	47390
#	60912
#	77182
#	92557
#	109577
#	125060
#	145140
#	163570
#
# Disc length: 2433 seconds
#
# Revision: 2
# Processed by: cddbd v1.5.1PL0 Copyright (c) Steve Scherf et al.
# Submitted via: audiograbber 1.83.01
#
DISCID=80097f0b
DTITLE=Mike REID - Twilight Town
DYEAR=1992
DGENRE=Country
TTITLE0=A man with a hammer
TTITLE1=Some somebody
TTITLE2=Back in the fire
TTITLE3=Keep on walkin'
TTITLE4=Call home
TTITLE5=Hurtin' side
TTITLE6=Workin' with the right tools
TTITLE7=One night
TTITLE8=I'll never have the heart (to leave this town)
TTITLE9=Love without mercy
TTITLE10=I can't make you love me
EXTD=
EXTT0=
EXTT1=
EXTT2=
EXTT3=
EXTT4=
EXTT5=
EXTT6=
EXTT7=
EXTT8=
EXTT9=
EXTT10=
PLAYORDER=
